<?xml version="1.0" standalone="no"?>
<!DOCTYPE svg PUBLIC "-//W3C//DTD SVG 20010904//EN"
 "http://www.w3.org/TR/2001/REC-SVG-20010904/DTD/svg10.dtd">
<svg version="1.0" xmlns="http://www.w3.org/2000/svg"
 width="1024.000000pt" height="1024.000000pt" viewBox="0 0 1024.000000 1024.000000"
 preserveAspectRatio="xMidYMid meet">

<g transform="translate(0.000000,1024.000000) scale(0.100000,-0.100000)"
fill="#000000" stroke="none">
<path d="M4980 8844 c-222 -27 -421 -79 -608 -158 -166 -70 -435 -242 -590
-376 -285 -247 -536 -670 -622 -1049 -40 -177 -52 -273 -53 -451 -3 -484 137
-942 400 -1313 174 -246 317 -382 594 -568 232 -156 462 -257 643 -281 l86
-12 15 -47 c17 -50 166 -351 186 -375 6 -8 26 -14 44 -14 38 0 103 43 256 171
119 99 162 144 214 222 l36 54 92 5 c242 13 625 212 953 495 75 65 247 260
339 384 85 115 188 296 236 416 25 64 79 247 107 363 42 174 54 503 26 702
-89 638 -468 1221 -997 1531 -257 151 -492 239 -767 287 -65 11 -523 22 -590
14z m893 -545 c20 -6 74 -38 120 -72 108 -82 438 -369 504 -439 48 -51 52 -59
58 -119 3 -35 5 -476 3 -979 -5 -999 -1 -945 -64 -1075 -52 -110 -223 -247
-376 -301 -75 -26 -361 -35 -1023 -32 -621 3 -642 4 -695 24 -149 57 -280 146
-346 235 -49 68 -102 185 -119 264 -20 99 -34 1878 -15 1970 13 62 83 244 98
254 5 3 22 27 39 52 87 127 230 209 396 228 99 10 1373 1 1420 -10z"/>
<path d="M4435 8081 c-139 -50 -237 -155 -276 -291 -9 -35 -12 -258 -10 -1015
l2 -970 30 -63 c39 -81 121 -162 206 -204 l65 -32 771 3 c502 1 786 5 812 12
113 30 225 127 266 230 20 52 20 70 24 839 2 432 6 793 10 802 6 15 -15 17
-262 20 l-268 3 -49 29 c-63 37 -129 103 -157 158 -20 37 -24 65 -30 203 -4
88 -8 187 -8 221 l-1 60 -487 2 c-269 1 -510 4 -538 7 -33 3 -67 -2 -100 -14z
m994 -797 c25 -11 96 -14 287 -14 139 0 264 -4 277 -9 41 -16 64 -112 30 -126
-10 -4 -123 -6 -251 -5 -175 1 -256 -3 -330 -16 -87 -15 -120 -15 -307 -4
-133 8 -281 10 -407 6 l-198 -7 -30 30 c-41 41 -40 78 5 122 19 19 49 37 67
40 18 3 211 4 428 1 302 -3 403 -8 429 -18z m533 -367 c66 -28 90 -113 44
-156 -18 -17 -31 -21 -53 -17 -53 12 -1203 15 -1316 4 -122 -12 -147 -5 -167
43 -10 23 -9 35 6 66 25 50 53 62 149 64 44 1 109 5 145 9 36 4 310 7 610 5
469 -2 550 -4 582 -18z m-622 -322 c392 0 408 -1 503 -24 108 -26 150 -49 184
-100 29 -43 29 -46 -2 -77 -18 -18 -31 -23 -43 -18 -30 13 -1202 17 -1340 4
-123 -11 -125 -11 -148 11 -42 39 -23 110 38 147 68 40 246 74 338 64 36 -3
247 -7 470 -7z m380 -421 c144 -2 233 -8 247 -15 25 -13 67 -72 78 -107 5 -18
-1 -30 -31 -58 -31 -30 -42 -35 -68 -30 -76 15 -396 26 -816 28 -412 3 -459 1
-500 -14 -64 -25 -112 -23 -139 6 -30 32 -38 89 -17 121 30 45 60 56 193 70
125 13 282 13 1053 -1z"/>
<path d="M5790 7913 c0 -163 10 -251 28 -254 4 -1 119 -2 255 -3 l248 -3 -33
26 c-18 14 -58 48 -88 77 -88 82 -390 334 -401 334 -5 0 -9 -74 -9 -177z"/>
<path d="M3734 4672 c-30 -19 -79 -69 -432 -433 -170 -177 -186 -202 -162
-263 13 -35 163 -185 285 -286 50 -40 136 -119 192 -173 97 -95 105 -100 151
-105 27 -2 59 1 70 7 29 15 54 66 54 107 0 48 -25 82 -104 144 -88 69 -218
193 -218 208 0 9 73 12 273 12 252 0 274 2 301 19 57 38 70 93 36 148 -41 67
-44 68 -351 68 -153 0 -281 3 -285 7 -12 13 44 78 197 229 82 81 153 159 159
173 7 20 6 37 -6 66 -29 73 -104 106 -160 72z"/>
<path d="M6531 4658 c-38 -39 -42 -95 -10 -148 12 -19 103 -115 203 -212 l181
-178 -313 0 c-196 0 -321 -4 -333 -10 -53 -29 -63 -129 -19 -190 l23 -32 308
4 c170 1 309 0 309 -4 0 -4 -62 -57 -139 -117 -76 -61 -156 -132 -177 -158
-34 -41 -39 -54 -38 -96 1 -54 24 -94 68 -115 52 -26 86 -9 203 101 166 156
393 366 456 422 95 84 83 121 -105 313 -58 60 -146 142 -195 183 -48 40 -126
112 -173 160 -98 100 -112 109 -173 109 -37 0 -50 -5 -76 -32z"/>
<path d="M4281 3864 c-69 -18 -113 -45 -149 -92 -46 -59 -54 -80 -53 -148 1
-140 95 -230 281 -270 100 -21 128 -32 135 -55 26 -80 -80 -110 -239 -69 -85
23 -81 24 -144 -34 -33 -31 -62 -75 -62 -96 0 -14 101 -58 175 -75 115 -28
287 -9 370 40 148 86 181 281 64 379 -47 40 -76 52 -189 81 -156 39 -187 62
-155 111 24 38 72 57 122 50 45 -6 123 -40 135 -60 5 -8 8 -7 8 2 0 7 22 37
48 65 55 59 82 96 82 113 0 14 -31 27 -130 54 -89 24 -219 26 -299 4z"/>
<path d="M5681 3873 l-173 -3 4 -74 c5 -103 9 -106 134 -106 99 0 104 -1 109
-22 2 -13 6 -147 7 -298 2 -222 6 -281 18 -305 l15 -30 105 0 105 0 0 318 c0
271 2 319 15 327 8 5 56 10 106 10 88 0 91 1 102 25 16 34 15 120 0 133 -24
19 -132 32 -252 30 -67 -1 -199 -4 -295 -5z"/>
<path d="M4797 3863 c-3 -4 -1 -145 3 -313 7 -288 9 -310 34 -394 15 -49 31
-97 36 -107 14 -25 44 -32 106 -24 67 8 74 19 74 123 0 125 9 172 33 172 27 0
79 -57 121 -133 56 -100 80 -117 176 -128 55 -6 87 -6 101 2 20 10 20 10 -2
47 -101 168 -131 226 -119 230 31 11 92 78 117 130 22 45 27 70 28 127 0 63
-4 78 -30 120 -17 27 -50 64 -73 82 -76 57 -121 66 -373 71 -125 2 -229 0
-232 -5z m433 -208 c92 -93 11 -185 -147 -169 l-63 7 0 46 c0 25 3 70 7 99 l6
54 83 -4 c78 -3 86 -5 114 -33z"/>
</g>
</svg>
